<svg width="161" height="25" viewBox="0 0 161 25" fill="none" xmlns="http://www.w3.org/2000/svg">
<path d="M7.01562 24H2.0625L2.09375 20.3438H7.01562C8.24479 20.3438 9.28125 20.0677 10.125 19.5156C10.9688 18.9531 11.6042 18.1354 12.0312 17.0625C12.4688 15.9896 12.6875 14.6927 12.6875 13.1719V12.0625C12.6875 10.8958 12.5625 9.86979 12.3125 8.98438C12.0729 8.09896 11.7135 7.35417 11.2344 6.75C10.7552 6.14583 10.1667 5.69271 9.46875 5.39062C8.77083 5.07812 7.96875 4.92188 7.0625 4.92188H1.96875V1.25H7.0625C8.58333 1.25 9.97396 1.51042 11.2344 2.03125C12.5052 2.54167 13.6042 3.27604 14.5312 4.23438C15.4583 5.19271 16.1719 6.33854 16.6719 7.67188C17.1823 8.99479 17.4375 10.4688 17.4375 12.0938V13.1719C17.4375 14.7865 17.1823 16.2604 16.6719 17.5938C16.1719 18.9271 15.4583 20.0729 14.5312 21.0312C13.6146 21.9792 12.5156 22.7135 11.2344 23.2344C9.96354 23.7448 8.55729 24 7.01562 24ZM4.71875 1.25V24H0.03125V1.25H4.71875ZM25.0625 10.7812V24H20.5625V7.09375H24.7969L25.0625 10.7812ZM30.1562 6.98438L30.0781 11.1562C29.8594 11.125 29.5938 11.099 29.2812 11.0781C28.9792 11.0469 28.7031 11.0312 28.4531 11.0312C27.8177 11.0312 27.2656 11.1146 26.7969 11.2812C26.3385 11.4375 25.9531 11.6719 25.6406 11.9844C25.3385 12.2969 25.1094 12.6771 24.9531 13.125C24.8073 13.5729 24.724 14.0833 24.7031 14.6562L23.7969 14.375C23.7969 13.2812 23.9062 12.276 24.125 11.3594C24.3438 10.4323 24.6615 9.625 25.0781 8.9375C25.5052 8.25 26.026 7.71875 26.6406 7.34375C27.2552 6.96875 27.9583 6.78125 28.75 6.78125C29 6.78125 29.2552 6.80208 29.5156 6.84375C29.776 6.875 29.9896 6.92188 30.1562 6.98438ZM37.0312 7.09375V24H32.5156V7.09375H37.0312ZM32.2344 2.6875C32.2344 2.03125 32.4635 1.48958 32.9219 1.0625C33.3802 0.635417 33.9948 0.421875 34.7656 0.421875C35.526 0.421875 36.1354 0.635417 36.5938 1.0625C37.0625 1.48958 37.2969 2.03125 37.2969 2.6875C37.2969 3.34375 37.0625 3.88542 36.5938 4.3125C36.1354 4.73958 35.526 4.95312 34.7656 4.95312C33.9948 4.95312 33.3802 4.73958 32.9219 4.3125C32.4635 3.88542 32.2344 3.34375 32.2344 2.6875ZM46.5 20.7188L50.25 7.09375H54.9531L49.25 24H46.4062L46.5 20.7188ZM43.9219 7.09375L47.6875 20.7344L47.7656 24H44.9062L39.2031 7.09375H43.9219ZM64.5312 24.3125C63.2188 24.3125 62.0417 24.1042 61 23.6875C59.9583 23.2604 59.0729 22.6719 58.3438 21.9219C57.625 21.1719 57.0729 20.3021 56.6875 19.3125C56.3021 18.3125 56.1094 17.25 56.1094 16.125V15.5C56.1094 14.2188 56.2917 13.0469 56.6562 11.9844C57.0208 10.9219 57.5417 10 58.2188 9.21875C58.9062 8.4375 59.7396 7.83854 60.7188 7.42188C61.6979 6.99479 62.8021 6.78125 64.0312 6.78125C65.2292 6.78125 66.2917 6.97917 67.2188 7.375C68.1458 7.77083 68.9219 8.33333 69.5469 9.0625C70.1823 9.79167 70.6615 10.6667 70.9844 11.6875C71.3073 12.6979 71.4688 13.8229 71.4688 15.0625V16.9375H58.0312V13.9375H67.0469V13.5938C67.0469 12.9688 66.9323 12.4115 66.7031 11.9219C66.4844 11.4219 66.151 11.026 65.7031 10.7344C65.2552 10.4427 64.6823 10.2969 63.9844 10.2969C63.3906 10.2969 62.8802 10.4271 62.4531 10.6875C62.026 10.9479 61.6771 11.3125 61.4062 11.7812C61.1458 12.25 60.9479 12.8021 60.8125 13.4375C60.6875 14.0625 60.625 14.75 60.625 15.5V16.125C60.625 16.8021 60.7188 17.4271 60.9062 18C61.1042 18.5729 61.3802 19.0677 61.7344 19.4844C62.099 19.901 62.5365 20.224 63.0469 20.4531C63.5677 20.6823 64.1562 20.7969 64.8125 20.7969C65.625 20.7969 66.3802 20.6406 67.0781 20.3281C67.7865 20.0052 68.3958 19.5208 68.9062 18.875L71.0938 21.25C70.7396 21.7604 70.2552 22.25 69.6406 22.7188C69.0365 23.1875 68.3073 23.5729 67.4531 23.875C66.599 24.1667 65.625 24.3125 64.5312 24.3125ZM78.4375 10.7031V24H73.9375V7.09375H78.1562L78.4375 10.7031ZM77.7812 14.9531H76.5625C76.5625 13.7031 76.724 12.5781 77.0469 11.5781C77.3698 10.5677 77.8229 9.70833 78.4062 9C78.9896 8.28125 79.6823 7.73438 80.4844 7.35938C81.2969 6.97396 82.2031 6.78125 83.2031 6.78125C83.9948 6.78125 84.7188 6.89583 85.375 7.125C86.0312 7.35417 86.5938 7.71875 87.0625 8.21875C87.5417 8.71875 87.9062 9.38021 88.1562 10.2031C88.4167 11.026 88.5469 12.0312 88.5469 13.2188V24H84.0156V13.2031C84.0156 12.4531 83.9115 11.8698 83.7031 11.4531C83.4948 11.0365 83.1875 10.7448 82.7812 10.5781C82.3854 10.401 81.8958 10.3125 81.3125 10.3125C80.7083 10.3125 80.1823 10.4323 79.7344 10.6719C79.2969 10.9115 78.9323 11.2448 78.6406 11.6719C78.3594 12.0885 78.1458 12.5781 78 13.1406C77.8542 13.7031 77.7812 14.3073 77.7812 14.9531ZM109.078 15.8906H103.281V12.2344H109.078C109.974 12.2344 110.703 12.0885 111.266 11.7969C111.828 11.4948 112.24 11.0781 112.5 10.5469C112.76 10.0156 112.891 9.41667 112.891 8.75C112.891 8.07292 112.76 7.44271 112.5 6.85938C112.24 6.27604 111.828 5.80729 111.266 5.45312C110.703 5.09896 109.974 4.92188 109.078 4.92188H104.906V24H100.219V1.25H109.078C110.859 1.25 112.385 1.57292 113.656 2.21875C114.938 2.85417 115.917 3.73438 116.594 4.85938C117.271 5.98438 117.609 7.27083 117.609 8.71875C117.609 10.1875 117.271 11.4583 116.594 12.5312C115.917 13.6042 114.938 14.4323 113.656 15.0156C112.385 15.599 110.859 15.8906 109.078 15.8906ZM125.312 0V24H120.797V0H125.312ZM139.031 19.9531V7.09375H143.531V24H139.297L139.031 19.9531ZM139.531 16.4844L140.859 16.4531C140.859 17.5781 140.729 18.625 140.469 19.5938C140.208 20.5521 139.818 21.3854 139.297 22.0938C138.776 22.7917 138.12 23.3385 137.328 23.7344C136.536 24.1198 135.604 24.3125 134.531 24.3125C133.708 24.3125 132.948 24.1979 132.25 23.9688C131.562 23.7292 130.969 23.3594 130.469 22.8594C129.979 22.349 129.594 21.6979 129.312 20.9062C129.042 20.1042 128.906 19.1406 128.906 18.0156V7.09375H133.406V18.0469C133.406 18.5469 133.464 18.9688 133.578 19.3125C133.703 19.6562 133.875 19.9375 134.094 20.1562C134.312 20.375 134.568 20.5312 134.859 20.625C135.161 20.7188 135.495 20.7656 135.859 20.7656C136.786 20.7656 137.516 20.5781 138.047 20.2031C138.589 19.8281 138.969 19.3177 139.188 18.6719C139.417 18.0156 139.531 17.2865 139.531 16.4844ZM156.109 19.3281C156.109 19.0052 156.016 18.7135 155.828 18.4531C155.641 18.1927 155.292 17.9531 154.781 17.7344C154.281 17.5052 153.557 17.2969 152.609 17.1094C151.755 16.9219 150.958 16.6875 150.219 16.4062C149.49 16.1146 148.854 15.7656 148.312 15.3594C147.781 14.9531 147.365 14.474 147.062 13.9219C146.76 13.3594 146.609 12.7188 146.609 12C146.609 11.2917 146.76 10.625 147.062 10C147.375 9.375 147.818 8.82292 148.391 8.34375C148.974 7.85417 149.682 7.47396 150.516 7.20312C151.359 6.92188 152.307 6.78125 153.359 6.78125C154.828 6.78125 156.089 7.01562 157.141 7.48438C158.203 7.95312 159.016 8.59896 159.578 9.42188C160.151 10.2344 160.438 11.1615 160.438 12.2031H155.938C155.938 11.7656 155.844 11.375 155.656 11.0312C155.479 10.6771 155.198 10.401 154.812 10.2031C154.438 9.99479 153.948 9.89062 153.344 9.89062C152.844 9.89062 152.411 9.97917 152.047 10.1562C151.682 10.3229 151.401 10.5521 151.203 10.8438C151.016 11.125 150.922 11.4375 150.922 11.7812C150.922 12.0417 150.974 12.276 151.078 12.4844C151.193 12.6823 151.375 12.8646 151.625 13.0312C151.875 13.1979 152.198 13.3542 152.594 13.5C153 13.6354 153.5 13.7604 154.094 13.875C155.312 14.125 156.401 14.4531 157.359 14.8594C158.318 15.2552 159.078 15.7969 159.641 16.4844C160.203 17.1615 160.484 18.0521 160.484 19.1562C160.484 19.9062 160.318 20.5938 159.984 21.2188C159.651 21.8438 159.172 22.3906 158.547 22.8594C157.922 23.3177 157.172 23.6771 156.297 23.9375C155.432 24.1875 154.458 24.3125 153.375 24.3125C151.802 24.3125 150.469 24.0312 149.375 23.4688C148.292 22.9062 147.469 22.1927 146.906 21.3281C146.354 20.4531 146.078 19.5573 146.078 18.6406H150.344C150.365 19.2552 150.521 19.75 150.812 20.125C151.115 20.5 151.495 20.7708 151.953 20.9375C152.422 21.1042 152.927 21.1875 153.469 21.1875C154.052 21.1875 154.536 21.1094 154.922 20.9531C155.307 20.7865 155.599 20.5677 155.797 20.2969C156.005 20.0156 156.109 19.6927 156.109 19.3281Z" fill="white"/>
</svg>
